<?xml version="1.0" encoding="utf-8"?>
<!-- Generator: Adobe Illustrator 19.0.0, SVG Export Plug-In . SVG Version: 6.00 Build 0)  -->
<svg version="1.1" id="Layer_1" xmlns="http://www.w3.org/2000/svg" xmlns:xlink="http://www.w3.org/1999/xlink" x="0px" y="0px"
	 viewBox="0 0 960 560" style="enable-background:new 0 0 960 560;" xml:space="preserve">
<style type="text/css">
	.st0{fill:#E6E6E6;}
	.st1{fill:#F3C02A;}
	.st2{fill:#3F3D56;}
</style>
<g id="XMLID_2_">
	<title>Layer 1</title>
	<path id="svg_4" class="st0" d="M245.2,286.3c-6.8-10.1-9.7-28,2.9-36.8c6.3-4.4,13.9-3.8,20.4-1.9c9.1,2.7,17.2,8.1,24.2,14.2
		c8.1,7,15,15.2,21.8,23.4c6.7,8.1,13.5,16.1,20.7,23.9c14.1,15.2,29.2,29.5,45.1,42.9c15.6,13.1,32,25.1,49.1,36.1
		c8.5,5.5,17.2,10.6,26,15.5c8.2,4.7,16.7,8.9,25.5,12.6c11.6,4.7,31.6,11.2,41.9-1.9c5.5-7,5.7-16.4,4.5-24.3
		c-1.5-9.6-5.3-18.5-9-27.3c-17.2-40.6-34.7-81.2-52-121.8c-4-9.5-8.2-18.9-11.6-28.7c-3.1-9.2-5.8-18.8-5.8-28.8
		c-0.1-8.7,1.8-18.6,8.5-25.3c5.5-5.6,13.2-7.4,20.5-7.4c18,0.1,34.8,9.3,48.8,18.9c17.3,12,32.7,26.5,49.9,38.6
		c13.9,9.7,30.3,18.6,48.1,19.7c6.8,0.4,14.1-0.5,20.3-4.2c5.9-3.7,10.3-9.6,12.1-16.3c2.3-7.8,2-16.1,0.8-23.9
		c-1.5-9.1-4.3-17.8-8.3-26.1c-8.4-18-19.9-34.1-29.8-51.2c-4.9-8.4-9.6-17-12.6-26.3c-2.6-7.9-4.6-17.3-2.1-25.8
		c5.2-17.7,26.5-11,37.2-5.9c7.3,3.6,14.3,7.7,21.1,12.3c1.4,1,2.9-1.6,1.4-2.5c-7.1-4.8-14.5-9.1-22.2-12.8
		c-6.6-3-13.8-5.6-21.3-5.5c-6.3,0.1-12.7,2.8-16.4,8.4c-4.4,6.7-4.1,15.4-2.9,22.5c1.6,9.5,5.3,18.3,9.6,26.6
		c4.5,8.8,9.7,17.2,14.9,25.6c10.4,16.7,21.8,33.7,27,53.2c3.6,13.7,5.9,35-8.8,44.8c-6.6,4.3-14.6,5-21.8,4.1
		c-8.8-1-17.1-3.9-24.9-7.6c-36.4-17.1-60.6-52.5-99.4-65.6c-13.2-4.5-31.6-7.3-43.2,4.7c-6,6.3-8.4,15-9,23.1
		c-0.7,9.8,1.4,19.4,4.2,28.5c3.1,9.5,6.7,18.8,10.7,27.9c4.3,10.2,8.7,20.4,13.1,30.5l26.4,61.8l13.1,30.7
		c4,9.4,8.3,18.8,10.4,28.9c1.7,8.3,2.2,19.8-5.1,26.5c-5.8,5.3-14.3,5.1-21.1,3.8c-8.8-1.6-17.1-5.1-25-8.9
		c-9.1-4.4-18-9.4-26.7-14.5c-17.9-10.6-35.1-22.3-51.5-35.2c-16.4-12.9-32-26.8-46.7-41.6c-7.4-7.5-14.6-15.3-21.5-23.3
		c-7.1-8.2-13.8-16.9-21.2-24.9c-6.7-7.2-14-14-22.5-19.1c-7.1-4.3-15.5-7.8-24.2-7.6c-6.2,0.2-12.1,3-16.1,7.7
		c-3.9,4.9-6,10.9-6,17.1c0,7,2.2,13.9,6.2,19.7C243.7,289.3,246.2,287.7,245.2,286.3L245.2,286.3L245.2,286.3z"/>
	<rect id="svg_5" x="239.9" y="51.8" class="st0" width="116.4" height="103.4"/>
	<rect id="svg_6" x="239.9" y="237.9" class="st1" width="116.4" height="103.4"/>
	<rect id="svg_7" x="614.1" y="51.8" class="st1" width="116.4" height="103.4"/>
	<rect id="svg_8" x="614.1" y="237.9" class="st0" width="116.4" height="103.4"/>
	<rect id="svg_9" x="428.3" y="51.8" class="st1" width="116.4" height="103.4"/>
	<rect id="svg_10" x="428.3" y="237.9" class="st1" width="116.4" height="103.4"/>
	<rect id="svg_5_1_" x="239.9" y="424.3" class="st0" width="116.4" height="103.4"/>
	<rect id="svg_7_1_" x="614.1" y="424.3" class="st0" width="116.4" height="103.4"/>
	<rect id="svg_9_1_" x="428.3" y="424.3" class="st0" width="116.4" height="103.4"/>
	<circle id="svg_11" class="st2" cx="428.7" cy="51.7" r="19.4"/>
	<circle id="svg_12" class="st2" cx="616.3" cy="51.7" r="19.4"/>
	<circle id="svg_13" class="st2" cx="241.1" cy="238.3" r="19.4"/>
	<circle id="svg_14" class="st2" cx="428.7" cy="238.3" r="19.4"/>
</g>
</svg>
